<?xml version="1.0" encoding="utf-8"?>
<!-- Generator: Adobe Illustrator 21.1.0, SVG Export Plug-In . SVG Version: 6.00 Build 0)  -->
<svg version="1.1" id="Layer_1" xmlns="http://www.w3.org/2000/svg" xmlns:xlink="http://www.w3.org/1999/xlink" x="0px" y="0px"
	 viewBox="0 0 500 500" style="enable-background:new 0 0 500 500;" xml:space="preserve">
<style type="text/css">
	.st0{fill:#209cee;}
	.st1{fill:#FFFFFF;}
	.st2{fill:none;stroke:#000000;stroke-miterlimit:10;}
	.st3{fill:#ff470f;stroke:#ff470f;stroke-width:37;stroke-miterlimit:10;}
	.st4{font-family:'Futura-Medium';}
	.st5{font-size:411.4945px;}
</style>
<path class="st0" d="M503,504H0V0h504v503C504,503.5,503.5,504,503,504z"/>
<g>
	<path class="st1" d="M112.2,120.6c-3,27.2-5.8,54.3-8.1,81.5c-0.6,6.8-1.1,13.6-1.6,20.3c-0.5,6.8-1,13.6-1.4,20.3
		c-0.9,13.5-1.5,27.1-2,40.6c-0.5,13.5-0.7,26.9-0.6,40.3c0.1,13.4,0.5,26.7,1.5,39.8c1,13.1,2.5,26.1,5,38.5c0.3,1.6,0.7,3.1,1,4.6
		c0.4,1.5,0.7,3.1,1.1,4.6c0.8,3,1.6,6,2.6,8.8c0.5,1.4,0.9,2.9,1.5,4.2c0.5,1.4,1,2.8,1.6,4.1l1.8,3.9c0.6,1.3,1.3,2.5,1.9,3.7
		c2.6,4.8,5.7,9,9.1,12.2c3.4,3.2,7.2,5.4,11.7,6.8c4.5,1.3,9.7,1.7,15.3,1.1c5.6-0.6,11.5-2,17.4-3.9l4.4-1.6
		c1.5-0.5,2.9-1.2,4.4-1.8c3-1.2,5.9-2.6,8.8-4c1.5-0.7,2.9-1.5,4.4-2.2c1.5-0.8,2.9-1.5,4.4-2.3l4.3-2.4l2.2-1.2l2.1-1.3
		c11.5-6.8,22.6-14.4,33.6-22.5c21.9-16.1,42.9-33.9,63.4-52.1c20.5-18.3,40.5-37.3,60.2-56.5c-17.7,21.2-35.7,42.1-54.4,62.5
		c-18.7,20.4-37.9,40.4-58.7,59.1c-10.4,9.4-21.1,18.5-32.6,26.9c-11.4,8.5-23.7,16.3-37.4,22.6c-6.9,3.1-14.3,5.7-22.3,7.4
		c-8,1.7-16.8,2.3-25.8,0.7l-3.4-0.7l-1.7-0.4c-0.6-0.1-1.1-0.3-1.7-0.5l-3.3-1.1c-0.5-0.2-1.1-0.4-1.6-0.6l-1.6-0.7
		c-2.1-1-4.3-1.9-6.2-3.1l-3-1.8c-1-0.6-1.9-1.3-2.8-2c-7.3-5.4-13.2-12-17.9-18.8c-1.1-1.7-2.3-3.4-3.4-5.2l-3-5.2
		c-0.9-1.8-1.8-3.5-2.7-5.3c-0.9-1.8-1.7-3.5-2.5-5.3c-1.6-3.5-3-7.1-4.3-10.7c-0.7-1.8-1.2-3.6-1.9-5.3c-0.6-1.8-1.2-3.6-1.8-5.3
		c-4.4-14.2-7.6-28.5-10.1-42.7c-2.5-14.2-4.4-28.3-6-42.4c-1.5-14.1-2.7-28.2-3.7-42.2c-0.9-14-1.7-28.1-2.2-42.1
		c-0.3-7-0.5-14-0.7-21c-0.2-7-0.3-14-0.4-20.9c-0.5-27.9-0.5-55.8-0.2-83.6L112.2,120.6z"/>
</g>
<line class="st2" x1="210.8" y1="243.1" x2="210.8" y2="243.1"/>
<g>
	<path class="st1" d="M44.7,119.1c1.8-9.7,4.3-19.6,7.9-29.3c3.6-9.8,8.4-19.4,14.6-28.5l1.1-1.7l1.2-1.7l2.5-3.3
		c1.7-2.2,3.6-4.2,5.3-6.3c1.9-2,3.8-4,5.8-5.8l3.1-2.7l1.5-1.4l1.6-1.3c8.5-6.8,17.9-12.2,27.4-16.1c9.5-3.9,19.1-6.5,28.5-8.2
		c9.4-1.7,18.7-2.4,27.7-2.6c18.1-0.3,35.5,1.6,52.3,4.5c16.8,2.9,33.2,6.9,49.2,11.5c16,4.6,31.7,9.7,47.2,15.2
		c15.5,5.5,30.8,11.3,46.1,17.3c15.2,5.9,30.4,12,45.7,17.8c-16.1-3-32.1-6.4-48-9.6c-16-3.2-32-6.3-48-9c-16-2.7-32-5-47.9-6.7
		c-15.9-1.7-31.8-2.7-47.3-2.7c-15.6,0-30.9,1.1-45.2,3.9c-14.2,2.8-27.4,7.4-37.6,14.1c-5.1,3.3-9.3,7.1-12.8,11.3
		c-3.5,4.1-6.2,8.7-8.3,13.7c-4.2,9.9-6.1,21.8-6.1,34.8L44.7,119.1z"/>
</g>
<text transform="matrix(1.1128 0 0 1 61.0586 392.9082)" class="st3 st4 st5">G</text>
<g>
	<line class="st1" x1="275.4" y1="72.5" x2="350.8" y2="196.2"/>
	<polygon class="st1" points="280.6,69.4 350.8,196.2 270.3,75.6 	"/>
</g>
<g>
	<line class="st1" x1="309.9" y1="92.4" x2="311.4" y2="174.1"/>
	<polygon class="st1" points="315.9,92.3 311.4,174.1 303.9,92.6 	"/>
</g>
<g>
	<path class="st1" d="M275.4,72.5"/>
	<g>
		<path class="st1" d="M275.4,85c16.1,0,16.1-25,0-25C259.4,60,259.3,85,275.4,85L275.4,85z"/>
	</g>
</g>
<g>
	<path class="st1" d="M351.7,197.6"/>
	<g>
		<path class="st1" d="M351.7,210.1c16.1,0,16.1-25,0-25C335.6,185.1,335.6,210.1,351.7,210.1L351.7,210.1z"/>
	</g>
</g>
<g>
	<line class="st1" x1="266" y1="160.6" x2="354.7" y2="99.6"/>
	<polygon class="st1" points="262.6,155.6 354.7,99.6 269.4,165.5 	"/>
</g>
<g>
	<path class="st1" d="M267.2,159.7"/>
	<g>
		<path class="st1" d="M267.2,172.2c16.1,0,16.1-25,0-25C251.2,147.2,251.1,172.2,267.2,172.2L267.2,172.2z"/>
	</g>
</g>
<g>
	<path class="st1" d="M353.5,100.5"/>
	<g>
		<path class="st1" d="M353.5,113c16.1,0,16.1-25,0-25C337.5,88,337.4,113,353.5,113L353.5,113z"/>
	</g>
</g>
<g>
	<path class="st1" d="M309.9,91.5"/>
	<g>
		<path class="st1" d="M309.9,104c16.1,0,16.1-25,0-25C293.8,79,293.8,104,309.9,104L309.9,104z"/>
	</g>
</g>
<g>
	<path class="st1" d="M311.4,174.1"/>
	<g>
		<path class="st1" d="M311.4,186.6c16.1,0,16.1-25,0-25C295.3,161.6,295.3,186.6,311.4,186.6L311.4,186.6z"/>
	</g>
</g>
<g>
	<line class="st1" x1="382.5" y1="139.2" x2="275.4" y2="130.1"/>
	<polygon class="st1" points="382,145.1 275.4,130.1 383,133.2 	"/>
</g>
<g>
	<path class="st1" d="M382.5,139.2"/>
	<g>
		<path class="st1" d="M382.5,151.7c16.1,0,16.1-25,0-25C366.4,126.7,366.3,151.7,382.5,151.7L382.5,151.7z"/>
	</g>
</g>
<g>
	<path class="st1" d="M275.4,130.1"/>
	<g>
		<path class="st1" d="M275.4,142.6c16.1,0,16.1-25,0-25C259.4,117.6,259.3,142.6,275.4,142.6L275.4,142.6z"/>
	</g>
</g>
<g>
	<path class="st1" d="M421.7,44.2c7,2.6,14.1,5.4,21.2,9c7.1,3.7,14.2,8,21.1,13.5c6.8,5.5,13.4,12.3,18.6,20.4
		c5.2,8.1,9,17.4,10.6,26.6c1.6,9.2,1.4,18.1,0.1,26.2c-1.3,8.1-3.5,15.5-6.2,22.3c-5.4,13.7-12.5,25.4-20.1,36.3
		c-7.6,10.9-15.9,20.8-24.4,30.3c-8.5,9.5-17.4,18.5-26.5,27.2c-9.1,8.7-18.3,17.1-27.7,25.3c-4.7,4.1-9.4,8.1-14.1,12.2
		c-4.7,4-9.5,8-14,12.2c3.5-5.1,7.3-10,11-15c3.7-5,7.4-10,11-15c7.3-10,14.3-20.1,21-30.3c6.7-10.2,13.1-20.6,18.9-31.1
		c5.8-10.5,11.2-21.2,15.5-31.9c4.3-10.7,7.7-21.5,9.1-31.5c0.7-5,0.9-9.8,0.5-14c-0.4-4.2-1.4-7.8-2.8-10.5
		c-1.4-2.8-3.2-4.7-5.4-6.4c-2.2-1.7-4.9-3.3-8.2-4.7c-3.3-1.4-7.3-2.7-11.6-3.7c-4.3-1-9.1-1.7-14-2.3L421.7,44.2z"/>
</g>
<g>
	<path class="st1" d="M92.7,328.3c0.1,19.2,1.3,38.3,4.9,56.4c1.9,9,4.2,17.8,7.6,25.8c3.3,8.1,7.6,15.3,12.8,21.1
		c5.3,5.7,11.6,9.8,19,12c0.9,0.2,1.8,0.6,2.8,0.7l2.9,0.6l3,0.4c1,0.1,2,0.1,3.1,0.2c4.1,0.1,8.4,0,12.8-0.7
		c1.1-0.1,2.2-0.3,3.3-0.5c1.1-0.2,2.2-0.4,3.3-0.6c2.2-0.5,4.4-1,6.6-1.7l3.3-1l3.3-1.1c2.2-0.7,4.4-1.6,6.6-2.4
		c8.8-3.4,17.4-7.7,25.9-12.4c8.5-4.7,16.8-9.9,24.9-15.4c4.1-2.7,8.1-5.6,12.1-8.5c4-2.9,8-5.8,11.9-8.9c15.7-12,30.9-25,45.7-38.3
		c14.8-13.4,29.3-27.2,43.4-41.4c14.2-14.2,28-28.6,41.7-43.3c-12.5,15.7-25.2,31.2-38.2,46.5c-13,15.3-26.4,30.3-40.3,44.9
		c-13.9,14.6-28.2,28.9-43.3,42.5c-3.7,3.4-7.6,6.7-11.5,10.1c-3.9,3.3-7.8,6.6-11.8,9.7c-8,6.4-16.2,12.5-24.9,18.2
		c-8.6,5.7-17.6,11.1-27.2,15.7c-2.4,1.1-4.8,2.3-7.3,3.3l-3.7,1.6l-3.8,1.4c-2.5,1-5.2,1.8-7.8,2.6c-1.3,0.4-2.7,0.7-4,1.1
		c-1.3,0.4-2.7,0.7-4.1,1c-5.5,1.3-11.2,2-17.1,2.3c-1.5,0-2.9,0.1-4.4,0.1l-4.5-0.2c-1.5-0.2-3-0.3-4.5-0.5c-1.5-0.2-3-0.5-4.5-0.8
		c-6-1.3-12-3.4-17.6-6.3c-5.6-2.9-10.7-6.6-15.2-10.7c-9-8.3-15.8-18.2-20.9-28.3c-5.2-10.1-8.9-20.5-11.9-31
		c-5.9-20.9-8.8-41.8-10.6-62.7L92.7,328.3z"/>
</g>
</svg>
