<svg version="1" xmlns="http://www.w3.org/2000/svg" width="933.333" height="933.333" viewBox="0 0 700.000000 700.000000"><path d="M331.5 95.7c-72.3 4.4-130.8 27.9-170.8 68.5-25.9 26.4-42.7 54-53.6 88.1C97.4 282.9 92.9 322 95 358.4c2 35.7 7.9 62.7 19.7 91l4.6 10.8 5.3-.5 5.4-.6v19.8l6.9 10.3c27.6 41 76 73.1 131.1 86.7 13.6 3.4 32.4 6.8 43 7.7l6.7.7 13.9-9.3c45.5-30.3 93.5-71.1 152.7-129.9 26.1-25.8 27.4-27.3 43.6-49.6 9.2-12.7 19.5-27 22.9-31.9l6.2-8.9V303H336v102h103v67.8l-4.7 1.6c-30.7 9.9-80.9 12.5-117.5 6.1-70.4-12.2-102.6-59.3-100.5-146.5 1-41.1 8.9-69.4 25.9-92.3 21.9-29.5 62.3-44.7 119.1-44.7h13.8l-2.8-3.6c-3.9-5.2-4.4-15.1-1.1-20.8 4.2-7.1 15.1-10.1 22.6-6.2 3.6 1.8 8.2 8.1 8.2 11.1 0 4.4 1.4 5 12.2 5.3 16.7.5 17.2 2.8-6.6-32.9l-20.4-30.6-4.3-.6c-4.9-.6-8.5-3-11.6-7.7-1.8-2.6-2.3-4.7-2.3-9.6V95l-16.2.2c-9 .1-18.5.3-21.3.5zM402.6 99.5c.3.8.1 3.7-.6 6.5l-1.2 5 13.2 24c7.3 13.3 13.4 23.9 13.6 23.7.2-.1.1-3.4-.3-7.3-.5-6.3-.8-7.2-3.3-8.6-5.7-3.3-8.7-14.9-5.6-22.1 5.2-12.2 22.8-13.6 29.6-2.4 4.6 7.4 3.4 16.6-2.7 22.9l-3.7 3.8-.8 13.7c-.4 7.5-.6 13.8-.4 14 .2.2 9.1-4.9 19.9-11.4 18.3-11.1 19.4-11.9 18.6-14.1-1.6-4.1-1-10.6 1.4-15.2 2.5-5.1 8.7-9 14.7-9.1h3.5l-4.5-2.1c-15.8-7-48.7-16.1-73.5-20.3-17.3-3-18.6-3-17.9-1z"/><path d="M508.7 130.1c3.8 5.7 4.2 12.9 1.1 18.8-3 5.8-6.5 8.3-12.7 8.9-6.4.6-9.2-.2-13-3.4-2.2-1.8-3.5-2.3-4.4-1.6-.6.5-9.5 7.3-19.7 15.1-10.2 7.9-18.6 14.6-18.8 15-.1.4 17.6 1.2 39.5 1.8l39.7 1.1 2-2.5c2.3-3 9-6.2 12.9-6.3 1.5 0 4.3.7 6.2 1.4l3.5 1.5v-33.8l-15-8c-8.2-4.5-16.9-9-19.4-10.1l-4.6-1.9 2.7 4zM401.6 188.1c-.3 1.9-2.2 4.8-4.6 7-3.1 3-3.6 3.8-2.3 4.3 2.1.9 23-11.4 21.1-12.4-.7-.4-4-1.1-7.4-1.5l-6.1-.7-.7 3.3zM422.3 196.8c-4 3.1-7.2 5.9-7.3 6.2 0 .5 4.1 1.7 15.8 4.8.8.2 1.2-.8 1.2-3 0-5.1-1.2-13.8-1.9-13.7-.3 0-3.8 2.6-7.8 5.7zM448.7 197.7c12.3 22.6 12 22.2 21.8 27.6 4.9 2.7 12.4 7.2 16.5 10 5.7 3.8 47.7 34.9 56.8 42 .9.7 1.2-6 1.2-33.2v-34.2l-2.2 1.2c-3.2 1.7-11.8 1.4-15.6-.5-1.8-.9-4.4-3.4-5.8-5.6-1.5-2.2-2.9-4-3.3-4-.3 0-16.3-2.3-35.6-5-19.2-2.8-35.6-5-36.2-5-.8 0 .2 2.7 2.4 6.7zM438.6 201.1c-.3 1.7-.6 4.6-.6 6.3 0 2.9.5 3.3 5.9 5.3 3.2 1.3 6.1 2.3 6.5 2.3.6 0-8.4-14.1-10.4-16.3-.4-.5-1 .6-1.4 2.4zM539.3 397.8c-12.3 11-20.2 19-29.8 30.3-46.7 55.6-100.8 112.3-137.8 144.3-11.3 9.9-13.5 12.2-12.1 12.9 2 1.1 23.7.1 41.4-1.9 54.5-6.2 98.9-21.4 143.8-49.1l12.2-7.6v-71.9c0-39.5-.2-71.8-.4-71.8-.3 0-8 6.7-17.3 14.8z"/></svg>