<svg version="1" xmlns="http://www.w3.org/2000/svg" width="625.333" height="625.333" viewBox="0 0 469.000000 469.000000"><path d="M0 234.5V469h469V0H0v234.5zM180 10c34.1 2.3 72.6 11.5 123.5 29.4 17.4 6.1 81.5 31 81 31.4-.2.2-15.1-2.6-33.2-6.2-54.8-10.9-82.6-15.3-112.6-17.7-19.3-1.5-56.1-.7-68.2 1.5-30.4 5.6-49.1 16.8-57.9 34.6-3.6 7.4-6.5 18.5-6.6 24.7 0 2.5-1.4 4.7-6 10-23.2 26.1-35.8 60.1-37.6 101.7-1.8 39.8 7.3 76.2 26 104.1 4.7 6.9 4.7 7 5.7 18.5 2.1 25.4 6.1 45.9 10.6 54.2 8.7 16 25.3 23.6 45.6 20.9 24-3.2 56.6-19.4 90.9-45.2 24.5-18.4 44.7-36.1 77.1-67.2 17.3-16.6 22.8-22.6 32.1-35.1 45.3-60.6 68.8-107.3 68.9-136.6 0-10.8-2.3-16.5-8.4-20.9-4.8-3.5-16.6-7.6-25.2-8.6-4.7-.6-5.7-1-5.3-2.4.3-.9 3.7-14.5 7.7-30.4 4.9-19.6 7.6-28.7 8.5-28.7.7 0 5.4 1.8 10.3 3.9 47.5 20.6 66.4 57.1 52 100.5-5.8 17.4-18.6 38.7-35.2 58.6-11.6 13.8-35.9 38.1-55.5 55.3-13.8 12.2-21.4 19.8-30.5 30.7-26.3 31.4-60.6 67.4-84.2 88.5-6 5.4-11.3 10.5-11.6 11.4-1.7 4.2-33.2 30.4-49.9 41.4-33.1 21.8-62 27.3-84.3 16.1-31.2-15.8-49.7-60.2-58.6-140.9-4.7-42.6-6.1-70.6-6.8-138-.5-52.3-.4-58.8 1.1-65.5 12.8-56.5 50.3-89.1 108.1-94 13.1-1.1 12.7-1.1 28.5 0zm86.1 49.6c3.3 3.2 4.5 7.7 3 11.6-.9 2.4 0 4.4 8 18.9 4.9 8.9 9.2 16.5 9.5 16.8.3.3.2-1.9-.2-4.9-.5-3.9-1.4-6-3-7.2-8-6.4-2.8-20.8 7.6-20.8 10.1 0 14.7 13.7 6.9 20.9-1.9 1.7-2.2 3.4-2.7 11.7-.3 5.6-.1 9.5.4 9.2.5-.3 6.4-3.8 13.2-7.9l12.3-7.4-.6-3.3C319 89.3 324.1 83 331.9 83c3.9 0 5.2.5 7.4 2.8 9.7 10.1-2.2 25.4-14.2 18.1l-3.3-2-8.2 6.3c-4.4 3.4-10.5 8.1-13.3 10.3-2.9 2.2-4.9 4.1-4.5 4.2.4.2 12.4.7 26.7 1.2 24.2.8 26.1.7 27.5-.9 2.3-2.7 5.5-4 9.5-4 5.5 0 10.5 5.3 10.5 11 0 7.8-4.3 12-12.2 12-3.5 0-4.7-.6-7.7-3.8l-3.6-3.9-23.8-3.3c-13.1-1.8-23.9-3.1-24.1-2.9-.2.2 5.4 10.7 12.5 23.3l12.8 23 5-.3c2.7-.1 5.9.3 7 .9 3 1.5 5.1 6.2 5.1 11.1 0 3.3-.6 4.7-3.4 7.5-3.8 3.8-8.6 4.5-13.5 1.9-5.4-2.7-7-12.4-3.1-17.7l2-2.8-14.3-21.5-14.4-21.6-.7 4.7c-.3 2.6-.6 7-.6 9.8 0 5 .1 5.2 3.2 6.1 4 1.3 6.8 5.1 7 9.7.3 7.9-4.2 12.8-11.8 12.8-5.5 0-10.4-5.3-10.4-11.2 0-5.7 3-10.7 7.1-11.5 3-.6 3-.7 2.5-5.2-.3-2.5-.8-7.9-1.2-11.9-.3-3.9-.8-7.2-1-7.2-.3 0-6.3 4.5-13.4 10.1-10.5 8.1-13 10.6-13 12.6 0 3.3-2.8 7.8-5.8 9.5-1.3.7-4.3 1.2-6.5 1.2-7.7-.2-12.7-9.4-9.2-16.8 2.4-4.9 6.5-7 12.4-6.2 4.2.6 5.1.2 15.8-6.1 9.7-5.8 11.1-6.9 9.1-7.5-4.4-1.2-8.8-.9-8.8.7 0 3-5.3 7.6-9.5 8.1-8.5 1.1-14.3-6.8-11.6-15.6 3.1-10.4 17.6-10 21.1.5 1.1 3.4 3.9 4.5 12 4.5 7.2 0 7.1-.4-7.4-22.2-13.4-20-13.7-20.4-18.1-21.6-5-1.3-7.3-4-8.2-9.6-1.8-11 10.7-17.7 18.8-10z"/></svg>