<?xml version="1.0" encoding="iso-8859-1"?>
<!-- Generator: Adobe Illustrator 19.0.0, SVG Export Plug-In . SVG Version: 6.00 Build 0)  -->
<svg version="1.1" id="Layer_1" xmlns="http://www.w3.org/2000/svg" xmlns:xlink="http://www.w3.org/1999/xlink" x="0px" y="0px"
	 viewBox="0 0 512 512" style="enable-background:new 0 0 512 512;" xml:space="preserve">
<path style="fill:#979CA8;" d="M465,143H47c-25.916,0-47-21.084-47-47V47C0,21.084,21.084,0,47,0h418c25.916,0,47,21.084,47,47v49
	C512,121.916,490.916,143,465,143z"/>
<path style="fill:#7A7E87;" d="M465,0H256v143h209c25.916,0,47-21.084,47-47V47C512,21.084,490.916,0,465,0z"/>
<path style="fill:#70737C;" d="M465,286H47c-25.916,0-47-21.084-47-47v-49c0-25.916,21.084-47,47-47h418c25.916,0,47,21.084,47,47
	v49C512,264.916,490.916,286,465,286z"/>
<path style="fill:#666A71;" d="M465,143H256v143h209c25.916,0,47-21.084,47-47v-49C512,164.084,490.916,143,465,143z"/>
<path style="fill:#5C5F66;" d="M256,512c-8.284,0-15-6.716-15-15v-98c0-8.284,6.716-15,15-15s15,6.716,15,15v98
	C271,505.284,264.284,512,256,512z"/>
<path style="fill:#53565C;" d="M271,497v-98c0-8.284-6.716-15-15-15v128C264.284,512,271,505.284,271,497z"/>
<path style="fill:#70737C;" d="M433,512H79c-8.284,0-15-6.716-15-15s6.716-15,15-15h354c8.284,0,15,6.716,15,15S441.284,512,433,512
	z"/>
<path style="fill:#666A71;" d="M433,482H256v30h177c8.284,0,15-6.716,15-15S441.284,482,433,482z"/>
<circle style="fill:#E6EEFF;" cx="79" cy="79" r="16"/>
<circle style="fill:#2EE6C7;" cx="143" cy="79" r="16"/>
<path style="fill:#C4CAD9;" d="M433,94H207c-8.284,0-15-6.716-15-15s6.716-15,15-15h226c8.284,0,15,6.716,15,15S441.284,94,433,94z"
	/>
<path style="fill:#B8BFCC;" d="M433,64H256v30h177c8.284,0,15-6.716,15-15S441.284,64,433,64z"/>
<circle style="fill:#E6EEFF;" cx="79" cy="207" r="16"/>
<circle style="fill:#2EE6C7;" cx="143" cy="207" r="16"/>
<path style="fill:#C4CAD9;" d="M433,222H207c-8.284,0-15-6.716-15-15s6.716-15,15-15h226c8.284,0,15,6.716,15,15
	S441.284,222,433,222z"/>
<path style="fill:#B8BFCC;" d="M433,192H256v30h177c8.284,0,15-6.716,15-15S441.284,192,433,192z"/>
<path style="fill:#5C5F66;" d="M465,429H47c-25.916,0-47-21.084-47-47v-49c0-25.916,21.084-47,47-47h418c25.916,0,47,21.084,47,47
	v49C512,407.916,490.916,429,465,429z"/>
<path style="fill:#53565C;" d="M465,286H256v143h209c25.916,0,47-21.084,47-47v-49C512,307.084,490.916,286,465,286z"/>
<circle style="fill:#E6EEFF;" cx="79" cy="350" r="16"/>
<circle style="fill:#2EE6C7;" cx="143" cy="350" r="16"/>
<path style="fill:#C4CAD9;" d="M433,365H207c-8.284,0-15-6.716-15-15s6.716-15,15-15h226c8.284,0,15,6.716,15,15
	S441.284,365,433,365z"/>
<path style="fill:#B8BFCC;" d="M433,335H256v30h177c8.284,0,15-6.716,15-15S441.284,335,433,335z"/>
<g>
</g>
<g>
</g>
<g>
</g>
<g>
</g>
<g>
</g>
<g>
</g>
<g>
</g>
<g>
</g>
<g>
</g>
<g>
</g>
<g>
</g>
<g>
</g>
<g>
</g>
<g>
</g>
<g>
</g>
</svg>
