<?xml version="1.0" encoding="iso-8859-1"?>
<!-- Generator: Adobe Illustrator 19.0.0, SVG Export Plug-In . SVG Version: 6.00 Build 0)  -->
<svg version="1.1" id="Layer_1" xmlns="http://www.w3.org/2000/svg" xmlns:xlink="http://www.w3.org/1999/xlink" x="0px" y="0px"
	 viewBox="0 0 512.001 512.001" style="enable-background:new 0 0 512.001 512.001;" xml:space="preserve">
<path style="fill:#C4CAD9;" d="M499.941,208.471l-61.712-12.34c-3.014-9.171-6.705-18.089-11.037-26.658l34.909-52.339
	c3.967-5.947,3.186-13.867-1.866-18.925l-46.424-46.447c-5.059-5.058-12.984-5.84-18.931-1.872l-52.353,34.925
	c-8.537-4.323-17.454-8.019-26.658-11.05l-12.342-61.708C302.126,5.047,295.97,0,288.819,0H223.18
	c-7.15,0-13.307,5.047-14.709,12.058L196.13,73.766c-9.204,3.031-18.121,6.726-26.658,11.05l-52.353-34.925
	c-5.95-3.969-13.875-3.186-18.931,1.872L51.765,98.209c-5.052,5.057-5.833,12.977-1.866,18.925l34.909,52.339
	c-4.332,8.57-8.023,17.487-11.037,26.658l-61.712,12.34C5.047,209.873,0,216.03,0,223.18v65.64c0,7.15,5.047,13.307,12.059,14.709
	l61.712,12.34c3.014,9.171,6.705,18.088,11.037,26.658l-34.909,52.339c-3.967,5.947-3.186,13.867,1.866,18.925l46.424,46.447
	c5.058,5.057,12.982,5.84,18.931,1.872l52.353-34.925c8.537,4.323,17.454,8.019,26.658,11.05l12.342,61.708
	c1.402,7.011,7.559,12.058,14.709,12.058h65.639c7.15,0,13.307-5.047,14.709-12.058l12.342-61.708
	c9.204-3.031,18.121-6.726,26.658-11.05l52.353,34.925c5.949,3.969,13.874,3.185,18.931-1.872l46.424-46.447
	c5.052-5.057,5.833-12.977,1.866-18.925l-34.909-52.339c4.332-8.57,8.023-17.487,11.037-26.658l61.712-12.34
	C506.953,302.127,512,295.97,512,288.82v-65.64C512,216.03,506.953,209.873,499.941,208.471z M256,336c-44.112,0-80-35.888-80-80
	s35.888-80,80-80s80,35.888,80,80S300.112,336,256,336z"/>
<path style="fill:#B8BFCC;" d="M256,336v176h32.819c7.15,0,13.307-5.047,14.709-12.058l12.342-61.708
	c9.204-3.031,18.121-6.726,26.658-11.05l52.353,34.925c5.949,3.969,13.874,3.185,18.931-1.872l46.424-46.447
	c5.052-5.057,5.833-12.977,1.866-18.925l-34.909-52.339c4.332-8.57,8.023-17.487,11.037-26.658l61.712-12.34
	C506.953,302.127,512,295.97,512,288.82v-65.64c0-7.15-5.047-13.307-12.059-14.709l-61.712-12.34
	c-3.014-9.171-6.705-18.089-11.037-26.658l34.909-52.339c3.967-5.947,3.186-13.867-1.866-18.925l-46.424-46.447
	c-5.059-5.058-12.984-5.84-18.931-1.872l-52.353,34.925c-8.537-4.323-17.454-8.019-26.658-11.05l-12.342-61.708
	C302.126,5.047,295.97,0,288.819,0H256v176c44.112,0,80,35.888,80,80S300.112,336,256,336z"/>
<path style="fill:#A1A7B3;" d="M256,351c-52.383,0-95-42.617-95-95s42.617-95,95-95s95,42.617,95,95S308.383,351,256,351z M256,191
	c-35.841,0-65,29.159-65,65s29.159,65,65,65s65-29.159,65-65S291.841,191,256,191z"/>
<path style="fill:#979CA7;" d="M321,256c0,35.841-29.159,65-65,65v30c52.383,0,95-42.617,95-95s-42.617-95-95-95v30
	C291.841,191,321,220.159,321,256z"/>
<g>
</g>
<g>
</g>
<g>
</g>
<g>
</g>
<g>
</g>
<g>
</g>
<g>
</g>
<g>
</g>
<g>
</g>
<g>
</g>
<g>
</g>
<g>
</g>
<g>
</g>
<g>
</g>
<g>
</g>
</svg>
