<?xml version="1.0" encoding="iso-8859-1"?>
<!-- Generator: Adobe Illustrator 19.0.0, SVG Export Plug-In . SVG Version: 6.00 Build 0)  -->
<svg version="1.1" id="Layer_1" xmlns="http://www.w3.org/2000/svg" xmlns:xlink="http://www.w3.org/1999/xlink" x="0px" y="0px"
	 viewBox="0 0 511.999 511.999" style="enable-background:new 0 0 511.999 511.999;" xml:space="preserve">
<path style="fill:#FDC537;" d="M412.091,511.999c-3.84,0-7.681-1.466-10.612-4.398L4.397,110.519
	c-5.863-5.863-5.863-15.362,0-21.225L89.295,4.397c5.863-5.863,15.362-5.863,21.225,0c89.81,89.793,306.536,306.536,397.082,397.082
	c5.863,5.863,5.863,15.362,0,21.225l-84.899,84.899C419.772,510.533,415.932,511.999,412.091,511.999z"/>
<path style="fill:#FAA736;" d="M256.483,150.36v212.246l144.995,144.995c2.932,2.932,6.772,4.398,10.612,4.398
	s7.681-1.466,10.612-4.398l84.899-84.899c5.863-5.863,5.863-15.362,0-21.225C451.954,345.837,348.696,242.558,256.483,150.36z"/>
<g>
	<path style="fill:#995D5C;" d="M116.999,116.031l52.578-52.593c-7.344-7.329-14.467-14.452-21.225-21.225L95.774,94.806
		c-5.863,5.863-5.863,15.362,0,21.225C101.637,121.895,111.135,121.895,116.999,116.031z"/>
	<path style="fill:#995D5C;" d="M177.038,146.05l37.568-37.583c-7.212-7.212-14.321-14.306-21.225-21.225l-37.568,37.583
		c-5.863,5.863-5.863,15.362,0,21.225C161.676,151.914,171.174,151.914,177.038,146.05z"/>
</g>
<g>
	<path style="fill:#994D4D;" d="M403.517,297.379l-37.568,37.583c-5.863,5.863-5.863,15.362,0,21.225
		c5.864,5.864,15.361,5.864,21.225,0l37.568-37.583C417.837,311.714,410.728,304.591,403.517,297.379z"/>
	<path style="fill:#994D4D;" d="M417.193,416.225l52.578-52.593c-6.757-6.742-13.881-13.866-21.225-21.225L395.968,395
		c-5.863,5.863-5.863,15.362,0,21.225C401.831,422.088,411.329,422.088,417.193,416.225z"/>
</g>
<path style="fill:#53565C;" d="M437.285,184.22L437.285,184.22c-3.987,0-7.827-1.583-10.642-4.427L341.98,94.836
	c-5.805-5.834-5.834-15.244-0.059-21.137l21.02-21.313c28.231-28.114,78.009-28.289,106.27-0.059
	c29.287,29.287,29.287,76.896,0,106.181l-21.313,21.313C445.083,182.637,441.272,184.22,437.285,184.22z"/>
<path style="fill:#45C1F1;" d="M363.131,73.759c0,0-5.101-5.424-10.51-10.818c-5.401,5.394-10.503,10.818-10.503,10.818
	L73.447,342.115c-3.005,2.697-4.507,6.625-4.507,10.525s1.502,7.798,4.507,10.495l84.95,84.957c2.705,2.99,6.603,4.515,10.51,4.515
	c0.902,0,2.103,0,2.998-0.322c2.705-0.586,5.408-1.788,7.505-4.192L458.59,169.211L363.131,73.759z"/>
<path style="fill:#9AD2FF;" d="M415.364,125.969L126.582,416.284l-19.517,19.495c-2.998,3.02-6.603,4.515-10.503,4.515
	c-3.907,0-7.813-1.495-10.81-4.515c-5.702-6.01-5.702-15.303,0-21.313l19.51-19.525l289.691-289.375L415.364,125.969z"/>
<path style="fill:#FFCF99;" d="M37.653,465.446c-1.407,5.218,0.059,10.759,3.869,14.57c2.844,2.844,6.684,4.398,10.612,4.398
	c1.319,0,2.639-0.176,3.958-0.527l116.764-31.807L69.459,348.683L37.653,465.446z"/>
<path style="fill:#5C5F66;" d="M47.627,428.831l-9.974,36.616c-1.407,5.218,0.059,10.759,3.869,14.57
	c2.844,2.844,6.684,4.398,10.612,4.398c1.319,0,2.639-0.176,3.958-0.527l34.38-9.352C77.478,460.492,62.615,444.574,47.627,428.831z
	"/>
<rect x="392.843" y="110.625" transform="matrix(-0.7072 -0.707 0.707 -0.7072 604.65 471.6628)" style="fill:#9AD2FF;" width="14.293" height="0.009"/>
<path style="fill:#FFCF99;" d="M73.447,363.134l31.81,31.812l0.005-0.005l5.232-5.226l-41.017-41.017
	c-0.348,1.285-0.537,2.613-0.537,3.941C68.94,356.538,70.442,360.438,73.447,363.134z"/>
<path style="fill:#36383A;" d="M415.364,125.969l-0.009,0.009l43.195,43.192l10.66-10.66c29.287-29.287,29.287-76.896,0-106.181
	c-0.135-0.135-0.278-0.258-0.414-0.392l-63.734,63.734L415.364,125.969z"/>
<path style="fill:#44A4EC;" d="M458.59,169.21l-0.04-0.04l-43.195-43.192l-21.151,21.264L131.809,411.03l41.024,41.024
	c2.388-0.65,4.72-1.835,6.576-3.964L458.59,169.21z"/>
<g>
	
		<rect x="410.196" y="113.539" transform="matrix(0.7037 -0.7105 0.7105 0.7037 35.699 327.2484)" style="fill:#93BDF9;" width="0.013" height="14.567"/>
	<polygon style="fill:#93BDF9;" points="120.755,399.977 131.809,411.03 394.205,147.242 383.865,136.867 	"/>
	<polygon style="fill:#93BDF9;" points="383.865,136.867 394.205,147.242 415.355,125.978 405.054,115.679 	"/>
</g>
<path style="fill:#E8B989;" d="M172.833,452.055l-41.024-41.024l-11.053-11.053l-5.234,5.234L85.383,435.35l-16.255,16.255
	c7.448,7.949,14.64,15.683,21.335,22.918l82.395-22.444L172.833,452.055z"/>
<polygon style="fill:#93BDF9;" points="90.472,474.534 90.462,474.523 56.092,483.886 "/>
<path style="fill:#36383A;" d="M52.134,484.413c1.319,0,2.639-0.176,3.958-0.527l34.37-9.363
	c-6.694-7.235-13.887-14.969-21.335-22.918l-27.994,27.994c0.129,0.139,0.254,0.281,0.389,0.416
	C44.366,482.86,48.207,484.413,52.134,484.413z"/>
<g>
</g>
<g>
</g>
<g>
</g>
<g>
</g>
<g>
</g>
<g>
</g>
<g>
</g>
<g>
</g>
<g>
</g>
<g>
</g>
<g>
</g>
<g>
</g>
<g>
</g>
<g>
</g>
<g>
</g>
</svg>
