<?xml version="1.0" encoding="iso-8859-1"?>
<!-- Generator: Adobe Illustrator 19.0.0, SVG Export Plug-In . SVG Version: 6.00 Build 0)  -->
<svg version="1.1" id="Layer_1" xmlns="http://www.w3.org/2000/svg" xmlns:xlink="http://www.w3.org/1999/xlink" x="0px" y="0px"
	 viewBox="0 0 512.001 512.001" style="enable-background:new 0 0 512.001 512.001;" xml:space="preserve">
<path style="fill:#5C5F66;" d="M497,512H15c-8.284,0-15-6.716-15-15s6.716-15,15-15h482c8.284,0,15,6.716,15,15S505.284,512,497,512
	z"/>
<path style="fill:#B999FF;" d="M127,448H63c-8.284,0-15-6.716-15-15V318H15c-5.82,0-11.115-3.367-13.584-8.638
	s-1.665-11.494,2.061-15.965l80-96C86.326,193.978,90.548,192,95,192s8.674,1.977,11.523,5.397l80,96
	c3.726,4.471,4.529,10.694,2.061,15.965S180.821,318,175,318h-33v115C142,441.284,135.284,448,127,448z"/>
<path style="fill:#87D92B;" d="M288,448h-64c-8.284,0-15-6.716-15-15V222h-33c-5.82,0-11.115-3.367-13.584-8.638
	s-1.665-11.494,2.061-15.965l80-96C247.326,97.978,251.548,96,256,96s8.674,1.977,11.523,5.397l80,96
	c3.726,4.471,4.529,10.694,2.061,15.965S341.821,222,336,222h-33v211C303,441.285,296.284,448,288,448z"/>
<path style="fill:#FFDE33;" d="M449,448h-64c-8.284,0-15-6.716-15-15V126h-33c-5.82,0-11.115-3.367-13.584-8.638
	s-1.665-11.494,2.061-15.965l80-96C408.326,1.978,412.548,0,417,0s8.674,1.977,11.523,5.397l80,96
	c3.726,4.471,4.529,10.694,2.061,15.965C508.115,122.633,502.821,126,497,126h-33v307C464,441.284,457.284,448,449,448z"/>
<path style="fill:#A680FF;" d="M127,448c8.284,0,15-6.716,15-15V318h33c5.82,0,11.115-3.367,13.584-8.638s1.665-11.494-2.061-15.965
	l-80-96C103.674,193.978,99.452,192,95,192v256H127z"/>
<path style="fill:#7FCC29;" d="M288,448c8.284,0,15-6.716,15-15V222h33c5.82,0,11.115-3.367,13.584-8.638s1.665-11.494-2.061-15.965
	l-80-96C264.674,97.978,260.452,96,256,96v352H288z"/>
<path style="fill:#FFBC33;" d="M449,448c8.284,0,15-6.716,15-15V126h33c5.82,0,11.115-3.367,13.584-8.638
	c2.469-5.271,1.665-11.494-2.061-15.965l-80-96C425.674,1.978,421.452,0,417,0v448H449z"/>
<path style="fill:#53565C;" d="M497,482H256v30h241c8.284,0,15-6.716,15-15S505.284,482,497,482z"/>
<g>
</g>
<g>
</g>
<g>
</g>
<g>
</g>
<g>
</g>
<g>
</g>
<g>
</g>
<g>
</g>
<g>
</g>
<g>
</g>
<g>
</g>
<g>
</g>
<g>
</g>
<g>
</g>
<g>
</g>
</svg>
