<?xml version="1.0" encoding="iso-8859-1"?>
<!-- Generator: Adobe Illustrator 19.0.0, SVG Export Plug-In . SVG Version: 6.00 Build 0)  -->
<svg version="1.1" id="Layer_1" xmlns="http://www.w3.org/2000/svg" xmlns:xlink="http://www.w3.org/1999/xlink" x="0px" y="0px"
	 viewBox="0 0 512 512" style="enable-background:new 0 0 512 512;" xml:space="preserve">
<g>
	<path style="fill:#2EE6C7;" d="M256,158c-25.916,0-47-21.084-47-47V47c0-25.916,21.084-47,47-47s47,21.084,47,47v64
		C303,136.916,281.916,158,256,158z"/>
	<path style="fill:#2EE6C7;" d="M256,512c-25.916,0-47-21.084-47-47v-64c0-25.916,21.084-47,47-47s47,21.084,47,47v64
		C303,490.916,281.916,512,256,512z"/>
</g>
<g>
	<path style="fill:#29CCB1;" d="M303,465v-64c0-25.916-21.084-47-47-47v158C281.916,512,303,490.916,303,465z"/>
	<path style="fill:#29CCB1;" d="M303,111V47c0-25.916-21.084-47-47-47v158C281.916,158,303,136.916,303,111z"/>
</g>
<path style="fill:#2EE6C7;" d="M111,303H47c-25.916,0-47-21.084-47-47s21.084-47,47-47h64c25.916,0,47,21.084,47,47
	S136.916,303,111,303z"/>
<path style="fill:#29CCB1;" d="M465,303h-64c-25.916,0-47-21.084-47-47s21.084-47,47-47h64c25.916,0,47,21.084,47,47
	S490.916,303,465,303z"/>
<path style="fill:#2EE6C7;" d="M108.215,450.786c-12.555,0-24.357-4.889-33.234-13.767c-18.324-18.325-18.324-48.142-0.001-66.467
	l45.256-45.255c8.877-8.877,20.68-13.766,33.234-13.766s24.357,4.889,33.233,13.766c8.877,8.877,13.767,20.68,13.767,33.234
	c0,12.555-4.89,24.357-13.767,33.234l-45.255,45.254C132.572,445.896,120.77,450.786,108.215,450.786z"/>
<g>
	<path style="fill:#29CCB1;" d="M358.53,200.47c-12.555,0-24.357-4.889-33.233-13.766c-8.877-8.877-13.767-20.68-13.767-33.234
		c0-12.555,4.89-24.357,13.767-33.234l45.255-45.254c8.876-8.877,20.679-13.767,33.233-13.767s24.357,4.889,33.234,13.767l0,0
		c18.324,18.325,18.324,48.142,0.001,66.467l-45.256,45.255C382.888,195.581,371.085,200.47,358.53,200.47z"/>
	<path style="fill:#29CCB1;" d="M403.785,450.786c-12.555,0-24.357-4.889-33.234-13.767l-45.254-45.254
		c-8.877-8.876-13.767-20.679-13.767-33.233c0-12.555,4.89-24.357,13.767-33.234l-0.001,0.001c0.001-0.001,0.001-0.001,0.001-0.001
		c8.876-8.877,20.679-13.766,33.233-13.766s24.357,4.889,33.234,13.766l45.255,45.255c18.324,18.326,18.324,48.143,0,66.468
		C428.143,445.896,416.34,450.786,403.785,450.786z M335.903,335.903h0.01H335.903z"/>
</g>
<path style="fill:#2EE6C7;" d="M153.47,200.47c-12.554,0-24.357-4.889-33.234-13.766L74.98,141.449
	c-18.324-18.326-18.324-48.143,0-66.468l0,0c8.877-8.877,20.68-13.767,33.234-13.767s24.357,4.889,33.234,13.767l45.254,45.254
	c8.877,8.876,13.767,20.679,13.767,33.233c0,12.555-4.89,24.357-13.767,33.234C177.827,195.581,166.024,200.469,153.47,200.47z"/>
<g>
</g>
<g>
</g>
<g>
</g>
<g>
</g>
<g>
</g>
<g>
</g>
<g>
</g>
<g>
</g>
<g>
</g>
<g>
</g>
<g>
</g>
<g>
</g>
<g>
</g>
<g>
</g>
<g>
</g>
</svg>
