<?xml version="1.0" encoding="iso-8859-1"?>
<!-- Generator: Adobe Illustrator 19.0.0, SVG Export Plug-In . SVG Version: 6.00 Build 0)  -->
<svg version="1.1" id="Layer_1" xmlns="http://www.w3.org/2000/svg" xmlns:xlink="http://www.w3.org/1999/xlink" x="0px" y="0px"
	 viewBox="0 0 511.999 511.999" style="enable-background:new 0 0 511.999 511.999;" xml:space="preserve">
<path style="fill:#995D5C;" d="M146.247,299.269L13.735,431.776c-18.314,18.328-18.314,48.151,0.008,66.488
	c18.328,18.314,48.151,18.314,66.484-0.005L212.73,365.75L146.247,299.269z"/>
<path style="fill:#994D4D;" d="M179.489,332.51L13.739,498.26c0.001,0.001,0.003,0.003,0.004,0.004
	c18.328,18.314,48.151,18.314,66.484-0.005L212.73,365.75L179.489,332.51z"/>
<path style="fill:#FFDE33;" d="M185.256,409.653c-3.98,0-7.796-1.58-10.609-4.394l-67.907-67.906
	c-2.814-2.814-4.394-6.631-4.394-10.609c0-3.98,1.581-7.796,4.396-10.609l49.952-49.941c3.325-3.323,8.015-4.895,12.669-4.251
	c4.656,0.646,8.74,3.436,11.035,7.538c7.21,12.89,16.22,24.782,26.781,35.343c10.561,10.561,22.452,19.572,35.343,26.781
	c4.102,2.295,6.893,6.379,7.538,11.034s-0.928,9.345-4.251,12.669l-49.942,49.952C193.051,408.072,189.235,409.653,185.256,409.653z
	"/>
<path style="fill:#FFBC33;" d="M174.646,405.259c2.814,2.814,6.631,4.395,10.609,4.394s7.796-1.581,10.609-4.396l49.942-49.952
	c3.323-3.324,4.897-8.013,4.251-12.669c-0.646-4.656-3.436-8.74-7.538-11.034c-12.891-7.21-24.782-16.22-35.343-26.781l0,0
	l-66.483,66.483L174.646,405.259z"/>
<path style="fill:#5C5F66;" d="M185.959,326.041c-73.796-73.799-75.423-194.752,0-270.175c74.488-74.487,195.688-74.487,270.175,0
	c74.487,74.488,74.487,195.688,0,270.175l0,0C380.917,401.257,259.95,400.031,185.959,326.041z"/>
<path style="fill:#53565C;" d="M456.134,326.041L456.134,326.041c74.487-74.487,74.487-195.688,0-270.175L185.959,326.041
	C259.95,400.031,380.917,401.257,456.134,326.041z"/>
<path style="fill:#E6EEFF;" d="M321.19,351.987c-43.108,0-83.598-16.75-114.013-47.165c-62.785-62.788-62.786-164.952,0-227.739
	c30.358-30.357,70.797-47.076,113.869-47.076s83.512,16.719,113.87,47.077c62.787,62.787,62.787,164.951,0,227.738
	C404.501,335.237,364.112,351.987,321.19,351.987z"/>
<path style="fill:#DAE2F2;" d="M321.19,351.987c42.923,0,83.311-16.75,113.726-47.165c62.787-62.787,62.787-164.951,0-227.738l0,0
	L207.176,304.823C237.592,335.237,278.082,351.987,321.19,351.987z"/>
<g>
</g>
<g>
</g>
<g>
</g>
<g>
</g>
<g>
</g>
<g>
</g>
<g>
</g>
<g>
</g>
<g>
</g>
<g>
</g>
<g>
</g>
<g>
</g>
<g>
</g>
<g>
</g>
<g>
</g>
</svg>
