<?xml version="1.0" encoding="iso-8859-1"?>
<!-- Generator: Adobe Illustrator 19.0.0, SVG Export Plug-In . SVG Version: 6.00 Build 0)  -->
<svg version="1.1" id="Layer_1" xmlns="http://www.w3.org/2000/svg" xmlns:xlink="http://www.w3.org/1999/xlink" x="0px" y="0px"
	 viewBox="0 0 512 512" style="enable-background:new 0 0 512 512;" xml:space="preserve">
<g>
	<path style="fill:#44A4EC;" d="M63,159c-34.738,0-63-28.262-63-63s28.262-63,63-63s63,28.262,63,63S97.738,159,63,159z"/>
	<path style="fill:#44A4EC;" d="M63,319c-34.738,0-63-28.262-63-63s28.262-63,63-63s63,28.262,63,63S97.738,319,63,319z"/>
	<path style="fill:#44A4EC;" d="M63,479c-34.738,0-63-28.262-63-63s28.262-63,63-63s63,28.262,63,63S97.738,479,63,479z"/>
</g>
<g>
	<path style="fill:#4DB5FF;" d="M465,143H207c-25.916,0-47-21.084-47-47s21.084-47,47-47h258c25.916,0,47,21.084,47,47
		S490.916,143,465,143z"/>
	<path style="fill:#4DB5FF;" d="M465,303H207c-25.916,0-47-21.084-47-47s21.084-47,47-47h258c25.916,0,47,21.084,47,47
		S490.916,303,465,303z"/>
	<path style="fill:#4DB5FF;" d="M465,463H207c-25.916,0-47-21.084-47-47s21.084-47,47-47h258c25.916,0,47,21.084,47,47
		S490.916,463,465,463z"/>
</g>
</svg>
